<svg width="1386" height="1745" xmlns="http://www.w3.org/2000/svg" xmlns:xlink="http://www.w3.org/1999/xlink" xml:space="preserve" overflow="hidden"><defs><clipPath id="clip0"><rect x="2556" y="359" width="287" height="201"/></clipPath><clipPath id="clip1"><rect x="2556" y="359" width="287" height="201"/></clipPath></defs><g transform="translate(-1507 -254)"><g><g><g><path d="M166.25 172.187 23.75 172.187 23.75 77.1875 166.25 77.1875 166.25 172.187ZM172.187 59.375 17.8125 59.375C11.2812 59.375 5.9375 64.7187 5.9375 71.25L5.9375 178.125C5.9375 184.656 11.2812 190 17.8125 190L77.1875 190 77.1875 207.812 50.4687 207.812 50.4687 225.625 139.531 225.625 139.531 207.812 112.812 207.812 112.812 190 172.187 190C178.719 190 184.062 184.656 184.062 178.125L184.062 71.25C184.062 64.7187 178.719 59.375 172.187 59.375Z" fill="#215F9A" transform="matrix(1 0 0 1.00351 1553 319)"/><path d="M267.187 89.0625 207.812 89.0625 207.812 71.25 267.187 71.25 267.187 89.0625ZM267.187 118.75 207.812 118.75 207.812 100.937 267.187 100.937 267.187 118.75ZM237.5 207.812C232.453 207.812 228.594 203.953 228.594 198.906 228.594 193.859 232.453 190 237.5 190 242.547 190 246.406 193.859 246.406 198.906 246.406 203.953 242.547 207.812 237.5 207.812ZM267.187 59.375 207.812 59.375C201.281 59.375 195.937 64.7187 195.937 71.25L195.937 213.75C195.937 220.281 201.281 225.625 207.812 225.625L267.187 225.625C273.719 225.625 279.062 220.281 279.062 213.75L279.062 71.25C279.062 64.7187 273.719 59.375 267.187 59.375Z" fill="#215F9A" transform="matrix(1 0 0 1.00351 1553 319)"/></g></g></g><g clip-path="url(#clip0)"><g clip-path="url(#clip1)"><g><path d="M133.545 198.834 151.351 198.834 151.351 222.575 133.545 222.575Z" fill="#215F9A" transform="matrix(1.00387 0 0 1 2556 360)"/><path d="M133.545 234.446 151.351 234.446 151.351 252.252 133.545 252.252Z" fill="#215F9A" transform="matrix(1.00387 0 0 1 2556 360)"/><path d="M163.222 234.446 249.284 234.446 249.284 252.252 163.222 252.252Z" fill="#215F9A" transform="matrix(1.00387 0 0 1 2556 360)"/><path d="M35.612 234.446 121.674 234.446 121.674 252.252 35.612 252.252Z" fill="#215F9A" transform="matrix(1.00387 0 0 1 2556 360)"/><path d="M226.789 151.351 58.107 151.351C52.2393 151.351 47.4827 156.108 47.4827 161.975L47.4827 188.21C47.4827 194.077 52.2393 198.834 58.107 198.834L226.789 198.834C232.657 198.834 237.414 194.077 237.414 188.21L237.414 161.975C237.414 156.108 232.657 151.351 226.789 151.351ZM77.1594 181.028C73.8813 181.028 71.2241 178.371 71.2241 175.093 71.2241 171.814 73.8813 169.157 77.1594 169.157 80.4375 169.157 83.0948 171.814 83.0948 175.093 83.0948 178.371 80.4375 181.028 77.1594 181.028ZM106.836 181.028C103.558 181.028 100.901 178.371 100.901 175.093 100.901 171.814 103.558 169.157 106.836 169.157 110.114 169.157 112.771 171.814 112.771 175.093 112.771 178.371 110.114 181.028 106.836 181.028ZM136.513 181.028C133.235 181.028 130.577 178.371 130.577 175.093 130.577 171.814 133.235 169.157 136.513 169.157 139.791 169.157 142.448 171.814 142.448 175.093 142.448 178.371 139.791 181.028 136.513 181.028Z" fill="#215F9A" transform="matrix(1.00387 0 0 1 2556 360)"/><path d="M226.789 91.9978 58.107 91.9978C52.2393 91.9978 47.4827 96.7543 47.4827 102.622L47.4827 128.856C47.4827 134.724 52.2393 139.48 58.107 139.48L226.789 139.48C232.657 139.48 237.414 134.724 237.414 128.856L237.414 102.622C237.414 96.7543 232.657 91.9978 226.789 91.9978ZM77.1594 121.674C73.8813 121.674 71.2241 119.017 71.2241 115.739 71.2241 112.461 73.8813 109.804 77.1594 109.804 80.4375 109.804 83.0948 112.461 83.0948 115.739 83.0948 119.017 80.4375 121.674 77.1594 121.674ZM106.836 121.674C103.558 121.674 100.901 119.017 100.901 115.739 100.901 112.461 103.558 109.804 106.836 109.804 110.114 109.804 112.771 112.461 112.771 115.739 112.771 119.017 110.114 121.674 106.836 121.674ZM136.513 121.674C133.235 121.674 130.577 119.017 130.577 115.739 130.577 112.461 133.235 109.804 136.513 109.804 139.791 109.804 142.448 112.461 142.448 115.739 142.448 119.017 139.791 121.674 136.513 121.674Z" fill="#215F9A" transform="matrix(1.00387 0 0 1 2556 360)"/><path d="M226.789 32.6444 58.107 32.6444C52.2393 32.6444 47.4827 37.401 47.4827 43.2686L47.4827 69.5028C47.4827 75.3705 52.2393 80.1271 58.107 80.1271L226.789 80.1271C232.657 80.1271 237.414 75.3705 237.414 69.5028L237.414 43.2686C237.414 37.401 232.657 32.6444 226.789 32.6444ZM77.1594 62.3211C73.8813 62.3211 71.2241 59.6638 71.2241 56.3857 71.2241 53.1076 73.8813 50.4504 77.1594 50.4504 80.4375 50.4504 83.0948 53.1076 83.0948 56.3857 83.0948 59.6638 80.4375 62.3211 77.1594 62.3211ZM106.836 62.3211C103.558 62.3211 100.901 59.6638 100.901 56.3857 100.901 53.1076 103.558 50.4504 106.836 50.4504 110.114 50.4504 112.771 53.1076 112.771 56.3857 112.771 59.6638 110.114 62.3211 106.836 62.3211ZM136.513 62.3211C133.235 62.3211 130.577 59.6638 130.577 56.3857 130.577 53.1076 133.235 50.4504 136.513 50.4504 139.791 50.4504 142.448 53.1076 142.448 56.3857 142.448 59.6638 139.791 62.3211 136.513 62.3211Z" fill="#215F9A" transform="matrix(1.00387 0 0 1 2556 360)"/></g></g></g><path d="M1727 721.844 2636.65 721.844 2636.65 732.157 1727 732.156ZM2631.5 711.532 2662.43 727 2631.5 742.469Z" fill="#215F9A"/><path d="M1.98929e-06-5.15625 41.25-5.15623 41.25 5.15627-1.98929e-06 5.15625ZM72.1875-5.15622 113.438-5.15621 113.438 5.15629 72.1875 5.15628ZM144.375-5.15619 185.625-5.15618 185.625 5.15632 144.375 5.15631ZM216.562-5.15617 257.812-5.15615 257.812 5.15635 216.562 5.15633ZM288.75-5.15614 330-5.15612 330 5.15638 288.75 5.15636ZM360.938-5.15611 402.188-5.1561 402.188 5.1564 360.938 5.15639ZM433.125-5.15608 474.375-5.15607 474.375 5.15643 433.125 5.15642ZM505.312-5.15605 546.562-5.15604 546.562 5.15646 505.312 5.15645ZM577.5-5.15603 618.75-5.15601 618.75 5.15649 577.5 5.15647ZM649.688-5.156 690.938-5.15598 690.938 5.15652 649.688 5.1565ZM721.875-5.15597 763.125-5.15596 763.125 5.15654 721.875 5.15653ZM794.062-5.15594 835.312-5.15593 835.312 5.15657 794.062 5.15656ZM866.25-5.15592 907.5-5.1559 907.5 5.1566 866.25 5.15658ZM904.496-15.4684 935.433 0.000360892 904.496 15.4691Z" fill="#215F9A" transform="matrix(-1 0 0 1 2673.43 854)"/><text fill="#215F9A" font-family="Verdana,Verdana_MSFontService,sans-serif" font-weight="700" font-size="60" transform="matrix(1 0 0 1 1605.34 331)">Client</text><text fill="#215F9A" font-family="Verdana,Verdana_MSFontService,sans-serif" font-weight="700" font-size="60" transform="matrix(1 0 0 1 2589.56 331)">MLAPI</text><text fill="#215F9A" font-family="Roboto,Roboto_MSFontService,sans-serif" font-weight="400" font-size="55" transform="matrix(1 0 0 1 1770.66 688)">/auth/reset</text><text fill="#215F9A" font-family="Roboto,Roboto_MSFontService,sans-serif" font-weight="400" font-size="55" transform="matrix(1 0 0 1 2047.96 688)">/</text><text fill="#215F9A" font-family="Roboto,Roboto_MSFontService,sans-serif" font-weight="400" font-size="55" transform="matrix(1 0 0 1 2258.6 815)">refresh token 1</text><path d="M1727 1037.84 2636.65 1037.84 2636.65 1048.16 1727 1048.16ZM2631.5 1027.53 2662.43 1043 2631.5 1058.47Z" fill="#215F9A"/><path d="M1.98929e-06-5.15625 41.25-5.15623 41.25 5.15627-1.98929e-06 5.15625ZM72.1875-5.15622 113.438-5.15621 113.438 5.15629 72.1875 5.15628ZM144.375-5.15619 185.625-5.15618 185.625 5.15632 144.375 5.15631ZM216.562-5.15617 257.812-5.15615 257.812 5.15635 216.562 5.15633ZM288.75-5.15614 330-5.15612 330 5.15638 288.75 5.15636ZM360.938-5.15611 402.188-5.1561 402.188 5.1564 360.938 5.15639ZM433.125-5.15608 474.375-5.15607 474.375 5.15643 433.125 5.15642ZM505.312-5.15605 546.562-5.15604 546.562 5.15646 505.312 5.15645ZM577.5-5.15603 618.75-5.15601 618.75 5.15649 577.5 5.15647ZM649.688-5.156 690.938-5.15598 690.938 5.15652 649.688 5.1565ZM721.875-5.15597 763.125-5.15596 763.125 5.15654 721.875 5.15653ZM794.062-5.15594 835.312-5.15593 835.312 5.15657 794.062 5.15656ZM866.25-5.15592 907.5-5.1559 907.5 5.1566 866.25 5.15658ZM904.496-15.4684 935.433 0.000360892 904.496 15.4691Z" fill="#215F9A" transform="matrix(-1 0 0 1 2673.43 1169)"/><text fill="#215F9A" font-family="Roboto,Roboto_MSFontService,sans-serif" font-weight="400" font-size="55" transform="matrix(1 0 0 1 1770.66 1004)">/auth/refresh/</text><text fill="#215F9A" font-family="Roboto,Roboto_MSFontService,sans-serif" font-weight="400" font-size="55" transform="matrix(1 0 0 1 1875.9 1130)">access token + refresh token 2</text><path d="M1727 1352.84 2636.65 1352.84 2636.65 1363.16 1727 1363.16ZM2631.5 1342.53 2662.43 1358 2631.5 1373.47Z" fill="#215F9A"/><path d="M1.98929e-06-5.15625 41.25-5.15623 41.25 5.15627-1.98929e-06 5.15625ZM72.1875-5.15622 113.438-5.15621 113.438 5.15629 72.1875 5.15628ZM144.375-5.15619 185.625-5.15618 185.625 5.15632 144.375 5.15631ZM216.562-5.15617 257.812-5.15615 257.812 5.15635 216.562 5.15633ZM288.75-5.15614 330-5.15612 330 5.15638 288.75 5.15636ZM360.938-5.15611 402.188-5.1561 402.188 5.1564 360.938 5.15639ZM433.125-5.15608 474.375-5.15607 474.375 5.15643 433.125 5.15642ZM505.312-5.15605 546.562-5.15604 546.562 5.15646 505.312 5.15645ZM577.5-5.15603 618.75-5.15601 618.75 5.15649 577.5 5.15647ZM649.688-5.156 690.938-5.15598 690.938 5.15652 649.688 5.1565ZM721.875-5.15597 763.125-5.15596 763.125 5.15654 721.875 5.15653ZM794.062-5.15594 835.312-5.15593 835.312 5.15657 794.062 5.15656ZM866.25-5.15592 907.5-5.1559 907.5 5.1566 866.25 5.15658ZM904.496-15.4684 935.433 0.000360892 904.496 15.4691Z" fill="#215F9A" transform="matrix(-1 0 0 1 2673.43 1485)"/><text fill="#215F9A" font-family="Roboto,Roboto_MSFontService,sans-serif" font-weight="400" font-size="55" transform="matrix(1 0 0 1 1770.66 1319)">/api/ml/</text><text fill="#215F9A" font-family="Roboto,Roboto_MSFontService,sans-serif" font-weight="400" font-size="55" transform="matrix(1 0 0 1 2354.28 1445)">predictions</text><path d="M1727 1730.84 2636.65 1730.84 2636.65 1741.16 1727 1741.16ZM2631.5 1720.53 2662.43 1736 2631.5 1751.47Z" fill="#215F9A"/><path d="M1.98929e-06-5.15625 41.25-5.15623 41.25 5.15627-1.98929e-06 5.15625ZM72.1875-5.15622 113.438-5.15621 113.438 5.15629 72.1875 5.15628ZM144.375-5.15619 185.625-5.15618 185.625 5.15632 144.375 5.15631ZM216.562-5.15617 257.812-5.15615 257.812 5.15635 216.562 5.15633ZM288.75-5.15614 330-5.15612 330 5.15638 288.75 5.15636ZM360.938-5.15611 402.188-5.1561 402.188 5.1564 360.938 5.15639ZM433.125-5.15608 474.375-5.15607 474.375 5.15643 433.125 5.15642ZM505.312-5.15605 546.562-5.15604 546.562 5.15646 505.312 5.15645ZM577.5-5.15603 618.75-5.15601 618.75 5.15649 577.5 5.15647ZM649.688-5.156 690.938-5.15598 690.938 5.15652 649.688 5.1565ZM721.875-5.15597 763.125-5.15596 763.125 5.15654 721.875 5.15653ZM794.062-5.15594 835.312-5.15593 835.312 5.15657 794.062 5.15656ZM866.25-5.15592 907.5-5.1559 907.5 5.1566 866.25 5.15658ZM904.496-15.4684 935.433 0.000360892 904.496 15.4691Z" fill="#215F9A" transform="matrix(-1 0 0 1 2673.43 1863)"/><text fill="#215F9A" font-family="Roboto,Roboto_MSFontService,sans-serif" font-weight="400" font-size="55" transform="matrix(1 0 0 1 1770.66 1697)">/auth/refresh/</text><text fill="#215F9A" font-family="Roboto,Roboto_MSFontService,sans-serif" font-weight="400" font-size="55" transform="matrix(1 0 0 1 1875.9 1824)">access token + refresh token 3</text><text fill="#215F9A" font-family="Verdana,Verdana_MSFontService,sans-serif" font-weight="700" font-size="55" transform="matrix(1 0 0 1 2169.92 1579)">...</text><text fill="#215F9A" font-family="Verdana,Verdana_MSFontService,sans-serif" font-weight="700" font-size="55" transform="matrix(1 0 0 1 2168.9 1955)">...</text><path d="M1676 612.666C1676 607.88 1679.88 604 1684.67 604L1719.33 604C1724.12 604 1728 607.88 1728 612.666L1728 1985.33C1728 1990.12 1724.12 1994 1719.33 1994L1684.67 1994C1679.88 1994 1676 1990.12 1676 1985.33Z" fill="#215F9A" fill-rule="evenodd"/><path d="M2673 612.666C2673 607.88 2676.88 604 2681.67 604L2716.33 604C2721.12 604 2725 607.88 2725 612.666L2725 1985.33C2725 1990.12 2721.12 1994 2716.33 1994L2681.67 1994C2676.88 1994 2673 1990.12 2673 1985.33Z" fill="#215F9A" fill-rule="evenodd"/></g></svg>