<svg width="1392" height="696" xmlns="http://www.w3.org/2000/svg" xmlns:xlink="http://www.w3.org/1999/xlink" xml:space="preserve" overflow="hidden"><defs><clipPath id="clip0"><rect x="2090" y="529" width="286" height="201"/></clipPath><clipPath id="clip1"><rect x="2090" y="529" width="286" height="201"/></clipPath></defs><g transform="translate(-1501 -254)"><g><g><g><path d="M1713.83 491.792 1570.83 491.792 1570.83 396.458 1713.83 396.458 1713.83 491.792ZM1719.79 378.583 1564.87 378.583C1558.32 378.583 1552.96 383.946 1552.96 390.5L1552.96 497.75C1552.96 504.304 1558.32 509.667 1564.87 509.667L1624.46 509.667 1624.46 527.542 1597.65 527.542 1597.65 545.417 1687.02 545.417 1687.02 527.542 1660.21 527.542 1660.21 509.667 1719.79 509.667C1726.35 509.667 1731.71 504.304 1731.71 497.75L1731.71 390.5C1731.71 383.946 1726.35 378.583 1719.79 378.583Z" fill="#215F9A"/><path d="M1815.12 408.375 1755.54 408.375 1755.54 390.5 1815.12 390.5 1815.12 408.375ZM1815.12 438.167 1755.54 438.167 1755.54 420.292 1815.12 420.292 1815.12 438.167ZM1785.33 527.542C1780.27 527.542 1776.4 523.669 1776.4 518.604 1776.4 513.54 1780.27 509.667 1785.33 509.667 1790.4 509.667 1794.27 513.54 1794.27 518.604 1794.27 523.669 1790.4 527.542 1785.33 527.542ZM1815.12 378.583 1755.54 378.583C1748.99 378.583 1743.62 383.946 1743.62 390.5L1743.62 533.5C1743.62 540.054 1748.99 545.417 1755.54 545.417L1815.12 545.417C1821.68 545.417 1827.04 540.054 1827.04 533.5L1827.04 390.5C1827.04 383.946 1821.68 378.583 1815.12 378.583Z" fill="#215F9A"/></g></g></g><text fill="#215F9A" font-family="Verdana,Verdana_MSFontService,sans-serif" font-weight="700" font-size="60" transform="matrix(1 0 0 1 1599.96 331)">Client</text><text fill="#215F9A" font-family="Verdana,Verdana_MSFontService,sans-serif" font-weight="700" font-size="60" transform="matrix(1 0 0 1 2598.56 331)">Model</text><path d="M1886.43 476.45 2058.56 568.255 2053.71 577.354 1881.57 485.55ZM2058.86 556.729 2078.88 584.937 2044.3 584.027Z" fill="#215F9A"/><path d="M2.42647-4.54963 174.56 87.255 169.707 96.3543-2.42647 4.54963ZM174.864 75.7293 194.882 103.937 160.305 103.027Z" fill="#215F9A" transform="matrix(1 0 0 -1 1884 808.937)"/><g><g><g><path d="M1713.83 836.792 1570.83 836.792 1570.83 741.458 1713.83 741.458 1713.83 836.792ZM1719.79 723.583 1564.87 723.583C1558.32 723.583 1552.96 728.946 1552.96 735.5L1552.96 842.75C1552.96 849.304 1558.32 854.667 1564.87 854.667L1624.46 854.667 1624.46 872.542 1597.65 872.542 1597.65 890.417 1687.02 890.417 1687.02 872.542 1660.21 872.542 1660.21 854.667 1719.79 854.667C1726.35 854.667 1731.71 849.304 1731.71 842.75L1731.71 735.5C1731.71 728.946 1726.35 723.583 1719.79 723.583Z" fill="#215F9A"/><path d="M1815.12 753.375 1755.54 753.375 1755.54 735.5 1815.12 735.5 1815.12 753.375ZM1815.12 783.167 1755.54 783.167 1755.54 765.292 1815.12 765.292 1815.12 783.167ZM1785.33 872.542C1780.27 872.542 1776.4 868.669 1776.4 863.604 1776.4 858.54 1780.27 854.667 1785.33 854.667 1790.4 854.667 1794.27 858.54 1794.27 863.604 1794.27 868.669 1790.4 872.542 1785.33 872.542ZM1815.12 723.583 1755.54 723.583C1748.99 723.583 1743.62 728.946 1743.62 735.5L1743.62 878.5C1743.62 885.054 1748.99 890.417 1755.54 890.417L1815.12 890.417C1821.68 890.417 1827.04 885.054 1827.04 878.5L1827.04 735.5C1827.04 728.946 1821.68 723.583 1815.12 723.583Z" fill="#215F9A"/></g></g></g><text fill="#215F9A" font-family="Verdana,Verdana_MSFontService,sans-serif" font-weight="700" font-size="60" transform="matrix(1 0 0 1 1599.64 677)">Client</text><text fill="#215F9A" font-family="Verdana,Verdana_MSFontService,sans-serif" font-weight="700" font-size="60" transform="matrix(1 0 0 1 2123.6 511)">MLAPI</text><g><g><g><path d="M2698.48 436.817C2689.38 436.817 2682.23 429.45 2682.23 420.567 2682.23 411.683 2689.6 404.317 2698.48 404.317 2707.58 404.317 2714.73 411.683 2714.73 420.567 2714.73 429.45 2707.37 436.817 2698.48 436.817ZM2735.1 410.383C2734.23 407.35 2733.15 404.533 2731.63 401.933L2735.1 391.75 2727.3 383.95 2717.12 387.417C2714.52 385.9 2711.7 384.817 2708.67 383.95L2703.9 374.417 2693.07 374.417 2688.3 383.95C2685.27 384.817 2682.45 385.9 2679.85 387.417L2669.67 383.95 2661.87 391.75 2665.33 401.933C2663.82 404.533 2662.73 407.35 2661.87 410.383L2652.33 415.15 2652.33 425.983 2661.87 430.75C2662.73 433.783 2663.82 436.6 2665.33 439.2L2661.87 449.383 2669.45 456.967 2679.63 453.5C2682.23 455.017 2685.05 456.1 2688.08 456.967L2692.85 466.5 2703.68 466.5 2708.45 456.967C2711.48 456.1 2714.3 455.017 2716.9 453.5L2727.08 456.967 2734.88 449.383 2731.42 439.2C2732.93 436.6 2734.23 433.567 2735.1 430.75L2744.63 425.983 2744.63 415.15 2735.1 410.383Z" fill="#215F9A"/><path d="M2649.52 515.683C2640.42 515.683 2633.27 508.317 2633.27 499.433 2633.27 490.333 2640.63 483.183 2649.52 483.183 2658.62 483.183 2665.77 490.55 2665.77 499.433 2665.77 508.317 2658.62 515.683 2649.52 515.683L2649.52 515.683ZM2682.67 480.8 2686.13 470.617 2678.33 462.817 2668.15 466.283C2665.55 464.767 2662.52 463.683 2659.7 462.817L2654.93 453.283 2644.1 453.283 2639.33 462.817C2636.3 463.683 2633.48 464.767 2630.88 466.283L2620.7 462.817 2613.12 470.4 2616.37 480.583C2614.85 483.183 2613.77 486.217 2612.9 489.033L2603.37 493.8 2603.37 504.633 2612.9 509.4C2613.77 512.433 2614.85 515.25 2616.37 517.85L2613.12 528.033 2620.7 535.617 2630.88 532.367C2633.48 533.883 2636.3 534.967 2639.33 535.833L2644.1 545.367 2654.93 545.367 2659.7 535.833C2662.73 534.967 2665.55 533.883 2668.15 532.367L2678.33 535.833 2685.92 528.033 2682.67 518.067C2684.18 515.467 2685.27 512.65 2686.13 509.617L2695.67 504.85 2695.67 494.017 2686.13 489.25C2685.27 486.217 2684.18 483.4 2682.67 480.8Z" fill="#215F9A"/></g></g></g><g><g><g><path d="M65 81.25C56.0625 81.25 48.75 73.9375 48.75 65 48.75 56.0625 56.0625 48.75 65 48.75 73.9375 48.75 81.25 56.0625 81.25 65 81.25 73.9375 73.9375 81.25 65 81.25ZM101.562 54.8437C100.75 51.8646 99.5312 49.0208 98.0416 46.4479L101.427 36.2916 93.7083 28.5729 83.552 31.9583C80.8437 30.4687 78 29.25 75.0208 28.4375L70.4166 18.9583 59.5833 18.9583 54.8437 28.4375C51.8646 29.25 49.0208 30.4687 46.4479 31.9583L36.2916 28.5729 28.5729 36.2916 31.9583 46.4479C30.4687 49.1562 29.25 52 28.4375 54.9791L18.9583 59.5833 18.9583 70.4166 28.4375 75.1562C29.25 78.1354 30.4687 80.9791 31.9583 83.552L28.5729 93.7083 36.2916 101.427 46.4479 98.0416C49.1562 99.5312 52 100.75 54.9791 101.562L59.7187 111.042 70.552 111.042 75.2916 101.562C78.2708 100.75 81.1145 99.5312 83.6875 98.0416L93.8437 101.427 101.562 93.7083 98.177 83.552C99.6666 80.8437 100.885 78 101.698 75.0208L111.177 70.2812 111.177 59.4479 101.562 54.8437Z" fill="#215F9A" transform="matrix(1 0 0 1 2683 435)"/></g></g></g><text fill="#215F9A" font-family="Verdana,Verdana_MSFontService,sans-serif" font-weight="700" font-size="60" transform="matrix(1 0 0 1 2598.56 677)">Model</text><g><g><g><path d="M2698.48 781.817C2689.38 781.817 2682.23 774.45 2682.23 765.567 2682.23 756.683 2689.6 749.317 2698.48 749.317 2707.58 749.317 2714.73 756.683 2714.73 765.567 2714.73 774.45 2707.37 781.817 2698.48 781.817ZM2735.1 755.383C2734.23 752.35 2733.15 749.533 2731.63 746.933L2735.1 736.75 2727.3 728.95 2717.12 732.417C2714.52 730.9 2711.7 729.817 2708.67 728.95L2703.9 719.417 2693.07 719.417 2688.3 728.95C2685.27 729.817 2682.45 730.9 2679.85 732.417L2669.67 728.95 2661.87 736.75 2665.33 746.933C2663.82 749.533 2662.73 752.35 2661.87 755.383L2652.33 760.15 2652.33 770.983 2661.87 775.75C2662.73 778.783 2663.82 781.6 2665.33 784.2L2661.87 794.383 2669.45 801.967 2679.63 798.5C2682.23 800.017 2685.05 801.1 2688.08 801.967L2692.85 811.5 2703.68 811.5 2708.45 801.967C2711.48 801.1 2714.3 800.017 2716.9 798.5L2727.08 801.967 2734.88 794.383 2731.42 784.2C2732.93 781.6 2734.23 778.567 2735.1 775.75L2744.63 770.983 2744.63 760.15 2735.1 755.383Z" fill="#215F9A"/><path d="M2649.52 860.683C2640.42 860.683 2633.27 853.317 2633.27 844.433 2633.27 835.333 2640.63 828.183 2649.52 828.183 2658.62 828.183 2665.77 835.55 2665.77 844.433 2665.77 853.317 2658.62 860.683 2649.52 860.683L2649.52 860.683ZM2682.67 825.8 2686.13 815.617 2678.33 807.817 2668.15 811.283C2665.55 809.767 2662.52 808.683 2659.7 807.817L2654.93 798.283 2644.1 798.283 2639.33 807.817C2636.3 808.683 2633.48 809.767 2630.88 811.283L2620.7 807.817 2613.12 815.4 2616.37 825.583C2614.85 828.183 2613.77 831.217 2612.9 834.033L2603.37 838.8 2603.37 849.633 2612.9 854.4C2613.77 857.433 2614.85 860.25 2616.37 862.85L2613.12 873.033 2620.7 880.617 2630.88 877.367C2633.48 878.883 2636.3 879.966 2639.33 880.833L2644.1 890.367 2654.93 890.367 2659.7 880.833C2662.73 879.966 2665.55 878.883 2668.15 877.367L2678.33 880.833 2685.92 873.033 2682.67 863.067C2684.18 860.466 2685.27 857.65 2686.13 854.617L2695.67 849.85 2695.67 839.017 2686.13 834.25C2685.27 831.217 2684.18 828.4 2682.67 825.8Z" fill="#215F9A"/></g></g></g><g><g><g><path d="M2748 861.25C2739.06 861.25 2731.75 853.937 2731.75 845 2731.75 836.062 2739.06 828.75 2748 828.75 2756.94 828.75 2764.25 836.062 2764.25 845 2764.25 853.937 2756.94 861.25 2748 861.25ZM2784.56 834.844C2783.75 831.865 2782.53 829.021 2781.04 826.448L2784.43 816.292 2776.71 808.573 2766.55 811.958C2763.84 810.469 2761 809.25 2758.02 808.437L2753.42 798.958 2742.58 798.958 2737.84 808.437C2734.86 809.25 2732.02 810.469 2729.45 811.958L2719.29 808.573 2711.57 816.292 2714.96 826.448C2713.47 829.156 2712.25 832 2711.44 834.979L2701.96 839.583 2701.96 850.417 2711.44 855.156C2712.25 858.135 2713.47 860.979 2714.96 863.552L2711.57 873.708 2719.29 881.427 2729.45 878.042C2732.16 879.531 2735 880.75 2737.98 881.562L2742.72 891.042 2753.55 891.042 2758.29 881.562C2761.27 880.75 2764.11 879.531 2766.69 878.042L2776.84 881.427 2784.56 873.708 2781.18 863.552C2782.67 860.844 2783.89 858 2784.7 855.021L2794.18 850.281 2794.18 839.448 2784.56 834.844Z" fill="#215F9A"/></g></g></g><path d="M2391.31 701.388 2524.15 767.811 2519.54 777.035 2386.69 710.612ZM2524.15 756.281 2544.91 783.953 2510.32 783.953Z" fill="#215F9A"/><g clip-path="url(#clip0)"><g clip-path="url(#clip1)"><g><path d="M134.062 199.604 151.938 199.604 151.938 223.438 134.062 223.438Z" fill="#215F9A" transform="matrix(1 0 0 1.00036 2090 529)"/><path d="M134.062 235.354 151.938 235.354 151.938 253.229 134.062 253.229Z" fill="#215F9A" transform="matrix(1 0 0 1.00036 2090 529)"/><path d="M163.854 235.354 250.25 235.354 250.25 253.229 163.854 253.229Z" fill="#215F9A" transform="matrix(1 0 0 1.00036 2090 529)"/><path d="M35.75 235.354 122.146 235.354 122.146 253.229 35.75 253.229Z" fill="#215F9A" transform="matrix(1 0 0 1.00036 2090 529)"/><path d="M227.668 151.938 58.3321 151.938C52.4417 151.938 47.6667 156.713 47.6667 162.603L47.6667 188.939C47.6667 194.829 52.4417 199.604 58.3321 199.604L227.668 199.604C233.558 199.604 238.333 194.829 238.333 188.939L238.333 162.603C238.333 156.713 233.558 151.938 227.668 151.938ZM77.4583 181.729C74.1675 181.729 71.5 179.062 71.5 175.771 71.5 172.48 74.1675 169.812 77.4583 169.812 80.7491 169.812 83.4167 172.48 83.4167 175.771 83.4167 179.062 80.7491 181.729 77.4583 181.729ZM107.25 181.729C103.959 181.729 101.292 179.062 101.292 175.771 101.292 172.48 103.959 169.812 107.25 169.812 110.541 169.812 113.208 172.48 113.208 175.771 113.208 179.062 110.541 181.729 107.25 181.729ZM137.042 181.729C133.751 181.729 131.083 179.062 131.083 175.771 131.083 172.48 133.751 169.812 137.042 169.812 140.332 169.812 143 172.48 143 175.771 143 179.062 140.332 181.729 137.042 181.729Z" fill="#215F9A" transform="matrix(1 0 0 1.00036 2090 529)"/><path d="M227.668 92.3542 58.3321 92.3542C52.4417 92.3542 47.6667 97.1292 47.6667 103.02L47.6667 129.355C47.6667 135.246 52.4417 140.021 58.3321 140.021L227.668 140.021C233.558 140.021 238.333 135.246 238.333 129.355L238.333 103.02C238.333 97.1292 233.558 92.3542 227.668 92.3542ZM77.4583 122.146C74.1675 122.146 71.5 119.478 71.5 116.188 71.5 112.897 74.1675 110.229 77.4583 110.229 80.7491 110.229 83.4167 112.897 83.4167 116.188 83.4167 119.478 80.7491 122.146 77.4583 122.146ZM107.25 122.146C103.959 122.146 101.292 119.478 101.292 116.188 101.292 112.897 103.959 110.229 107.25 110.229 110.541 110.229 113.208 112.897 113.208 116.188 113.208 119.478 110.541 122.146 107.25 122.146ZM137.042 122.146C133.751 122.146 131.083 119.478 131.083 116.188 131.083 112.897 133.751 110.229 137.042 110.229 140.332 110.229 143 112.897 143 116.188 143 119.478 140.332 122.146 137.042 122.146Z" fill="#215F9A" transform="matrix(1 0 0 1.00036 2090 529)"/><path d="M227.668 32.7708 58.3321 32.7708C52.4417 32.7708 47.6667 37.5458 47.6667 43.4363L47.6667 69.7721C47.6667 75.6625 52.4417 80.4375 58.3321 80.4375L227.668 80.4375C233.558 80.4375 238.333 75.6625 238.333 69.7721L238.333 43.4363C238.333 37.5458 233.558 32.7708 227.668 32.7708ZM77.4583 62.5625C74.1675 62.5625 71.5 59.895 71.5 56.6042 71.5 53.3134 74.1675 50.6458 77.4583 50.6458 80.7491 50.6458 83.4167 53.3134 83.4167 56.6042 83.4167 59.895 80.7491 62.5625 77.4583 62.5625ZM107.25 62.5625C103.959 62.5625 101.292 59.895 101.292 56.6042 101.292 53.3134 103.959 50.6458 107.25 50.6458 110.541 50.6458 113.208 53.3134 113.208 56.6042 113.208 59.895 110.541 62.5625 107.25 62.5625ZM137.042 62.5625C133.751 62.5625 131.083 59.895 131.083 56.6042 131.083 53.3134 133.751 50.6458 137.042 50.6458 140.332 50.6458 143 53.3134 143 56.6042 143 59.895 140.332 62.5625 137.042 62.5625Z" fill="#215F9A" transform="matrix(1 0 0 1.00036 2090 529)"/></g></g></g><path d="M2.42647-4.54963 174.56 87.255 169.707 96.3543-2.42647 4.54963ZM174.864 75.7293 194.882 103.937 160.305 103.027Z" fill="#215F9A" transform="matrix(1 0 0 -1 1884 745.937)"/><path d="M2.30595-4.61189 135.152 61.8111 130.54 71.0349-2.30595 4.61189ZM135.152 50.2814 155.906 77.9528 121.316 77.9528Z" fill="#215F9A" transform="matrix(1 0 0 -1 2389 642.953)"/><path d="M2.30595-4.61189 135.152 61.8111 130.54 71.0349-2.30595 4.61189ZM135.152 50.2814 155.906 77.9528 121.316 77.9528Z" fill="#215F9A" transform="matrix(1 0 0 -1 2389 580.953)"/></g></svg>