<svg width="1386" height="1740" xmlns="http://www.w3.org/2000/svg" xmlns:xlink="http://www.w3.org/1999/xlink" xml:space="preserve" overflow="hidden"><defs><clipPath id="clip0"><rect x="2550" y="350" width="287" height="202"/></clipPath><clipPath id="clip1"><rect x="2550" y="350" width="287" height="202"/></clipPath></defs><g transform="translate(-1502 -254)"><g><g><g><path d="M1713.83 491.792 1570.83 491.792 1570.83 396.458 1713.83 396.458 1713.83 491.792ZM1719.79 378.583 1564.87 378.583C1558.32 378.583 1552.96 383.946 1552.96 390.5L1552.96 497.75C1552.96 504.304 1558.32 509.667 1564.87 509.667L1624.46 509.667 1624.46 527.542 1597.65 527.542 1597.65 545.417 1687.02 545.417 1687.02 527.542 1660.21 527.542 1660.21 509.667 1719.79 509.667C1726.35 509.667 1731.71 504.304 1731.71 497.75L1731.71 390.5C1731.71 383.946 1726.35 378.583 1719.79 378.583Z" fill="#215F9A"/><path d="M1815.12 408.375 1755.54 408.375 1755.54 390.5 1815.12 390.5 1815.12 408.375ZM1815.12 438.167 1755.54 438.167 1755.54 420.292 1815.12 420.292 1815.12 438.167ZM1785.33 527.542C1780.27 527.542 1776.4 523.669 1776.4 518.604 1776.4 513.54 1780.27 509.667 1785.33 509.667 1790.4 509.667 1794.27 513.54 1794.27 518.604 1794.27 523.669 1790.4 527.542 1785.33 527.542ZM1815.12 378.583 1755.54 378.583C1748.99 378.583 1743.62 383.946 1743.62 390.5L1743.62 533.5C1743.62 540.054 1748.99 545.417 1755.54 545.417L1815.12 545.417C1821.68 545.417 1827.04 540.054 1827.04 533.5L1827.04 390.5C1827.04 383.946 1821.68 378.583 1815.12 378.583Z" fill="#215F9A"/></g></g></g><path d="M1722 721.844 2631.65 721.844 2631.65 732.157 1722 732.156ZM2626.5 711.532 2657.43 727 2626.5 742.469Z" fill="#215F9A"/><path d="M1.98929e-06-5.15625 41.25-5.15623 41.25 5.15627-1.98929e-06 5.15625ZM72.1875-5.15622 113.438-5.15621 113.438 5.15629 72.1875 5.15628ZM144.375-5.15619 185.625-5.15618 185.625 5.15632 144.375 5.15631ZM216.562-5.15617 257.812-5.15615 257.812 5.15635 216.562 5.15633ZM288.75-5.15614 330-5.15612 330 5.15638 288.75 5.15636ZM360.938-5.15611 402.188-5.1561 402.188 5.1564 360.938 5.15639ZM433.125-5.15608 474.375-5.15607 474.375 5.15643 433.125 5.15642ZM505.312-5.15605 546.562-5.15604 546.562 5.15646 505.312 5.15645ZM577.5-5.15603 618.75-5.15601 618.75 5.15649 577.5 5.15647ZM649.688-5.156 690.938-5.15598 690.938 5.15652 649.688 5.1565ZM721.875-5.15597 763.125-5.15596 763.125 5.15654 721.875 5.15653ZM794.062-5.15594 835.312-5.15593 835.312 5.15657 794.062 5.15656ZM866.25-5.15592 907.5-5.1559 907.5 5.1566 866.25 5.15658ZM904.496-15.4684 935.433 0.000360892 904.496 15.4691Z" fill="#215F9A" transform="matrix(-1 0 0 1 2667.43 854)"/><text fill="#215F9A" font-family="Verdana,Verdana_MSFontService,sans-serif" font-weight="700" font-size="60" transform="matrix(1 0 0 1 1599.96 331)">Client</text><text fill="#215F9A" font-family="Verdana,Verdana_MSFontService,sans-serif" font-weight="700" font-size="60" transform="matrix(1 0 0 1 2584.18 331)">MLAPI</text><text fill="#215F9A" font-family="Roboto,Roboto_MSFontService,sans-serif" font-weight="400" font-size="55" transform="matrix(1 0 0 1 1765.28 697)">/auth/reset/</text><text fill="#215F9A" font-family="Roboto,Roboto_MSFontService,sans-serif" font-weight="400" font-size="55" transform="matrix(1 0 0 1 2252.08 823)">refresh token 1</text><path d="M1722 1037.84 2631.65 1037.84 2631.65 1048.16 1722 1048.16ZM2626.5 1027.53 2657.43 1043 2626.5 1058.47Z" fill="#215F9A"/><path d="M1.98929e-06-5.15625 41.25-5.15623 41.25 5.15627-1.98929e-06 5.15625ZM72.1875-5.15622 113.438-5.15621 113.438 5.15629 72.1875 5.15628ZM144.375-5.15619 185.625-5.15618 185.625 5.15632 144.375 5.15631ZM216.562-5.15617 257.812-5.15615 257.812 5.15635 216.562 5.15633ZM288.75-5.15614 330-5.15612 330 5.15638 288.75 5.15636ZM360.938-5.15611 402.188-5.1561 402.188 5.1564 360.938 5.15639ZM433.125-5.15608 474.375-5.15607 474.375 5.15643 433.125 5.15642ZM505.312-5.15605 546.562-5.15604 546.562 5.15646 505.312 5.15645ZM577.5-5.15603 618.75-5.15601 618.75 5.15649 577.5 5.15647ZM649.688-5.156 690.938-5.15598 690.938 5.15652 649.688 5.1565ZM721.875-5.15597 763.125-5.15596 763.125 5.15654 721.875 5.15653ZM794.062-5.15594 835.312-5.15593 835.312 5.15657 794.062 5.15656ZM866.25-5.15592 907.5-5.1559 907.5 5.1566 866.25 5.15658ZM904.496-15.4684 935.433 0.000360892 904.496 15.4691Z" fill="#215F9A" transform="matrix(-1 0 0 1 2667.43 1169)"/><text fill="#215F9A" font-family="Roboto,Roboto_MSFontService,sans-serif" font-weight="400" font-size="55" transform="matrix(1 0 0 1 1765.28 1012)">/auth/refresh/</text><text fill="#215F9A" font-family="Roboto,Roboto_MSFontService,sans-serif" font-weight="400" font-size="55" transform="matrix(1 0 0 1 1869.37 1138)">access token + refresh token 2</text><path d="M1722 1352.84 2631.65 1352.84 2631.65 1363.16 1722 1363.16ZM2626.5 1342.53 2657.43 1358 2626.5 1373.47Z" fill="#215F9A"/><path d="M1.98929e-06-5.15625 41.25-5.15623 41.25 5.15627-1.98929e-06 5.15625ZM72.1875-5.15622 113.438-5.15621 113.438 5.15629 72.1875 5.15628ZM144.375-5.15619 185.625-5.15618 185.625 5.15632 144.375 5.15631ZM216.562-5.15617 257.812-5.15615 257.812 5.15635 216.562 5.15633ZM288.75-5.15614 330-5.15612 330 5.15638 288.75 5.15636ZM360.938-5.15611 402.188-5.1561 402.188 5.1564 360.938 5.15639ZM433.125-5.15608 474.375-5.15607 474.375 5.15643 433.125 5.15642ZM505.312-5.15605 546.562-5.15604 546.562 5.15646 505.312 5.15645ZM577.5-5.15603 618.75-5.15601 618.75 5.15649 577.5 5.15647ZM649.688-5.156 690.938-5.15598 690.938 5.15652 649.688 5.1565ZM721.875-5.15597 763.125-5.15596 763.125 5.15654 721.875 5.15653ZM794.062-5.15594 835.312-5.15593 835.312 5.15657 794.062 5.15656ZM866.25-5.15592 907.5-5.1559 907.5 5.1566 866.25 5.15658ZM904.496-15.4684 935.433 0.000360892 904.496 15.4691Z" fill="#215F9A" transform="matrix(-1 0 0 1 2667.43 1485)"/><text fill="#215F9A" font-family="Roboto,Roboto_MSFontService,sans-serif" font-weight="400" font-size="55" transform="matrix(1 0 0 1 1765.28 1327)">/api/ml/</text><text fill="#215F9A" font-family="Roboto,Roboto_MSFontService,sans-serif" font-weight="400" font-size="55" transform="matrix(1 0 0 1 2181.61 1454)">model </text><text fill="#215F9A" font-family="Roboto,Roboto_MSFontService,sans-serif" font-weight="400" font-size="55" transform="matrix(1 0 0 1 2348.33 1454)">predictions</text><path d="M1722 1730.84 2631.65 1730.84 2631.65 1741.16 1722 1741.16ZM2626.5 1720.53 2657.43 1736 2626.5 1751.47Z" fill="#215F9A"/><path d="M1.98929e-06-5.15625 41.25-5.15623 41.25 5.15627-1.98929e-06 5.15625ZM72.1875-5.15622 113.438-5.15621 113.438 5.15629 72.1875 5.15628ZM144.375-5.15619 185.625-5.15618 185.625 5.15632 144.375 5.15631ZM216.562-5.15617 257.812-5.15615 257.812 5.15635 216.562 5.15633ZM288.75-5.15614 330-5.15612 330 5.15638 288.75 5.15636ZM360.938-5.15611 402.188-5.1561 402.188 5.1564 360.938 5.15639ZM433.125-5.15608 474.375-5.15607 474.375 5.15643 433.125 5.15642ZM505.312-5.15605 546.562-5.15604 546.562 5.15646 505.312 5.15645ZM577.5-5.15603 618.75-5.15601 618.75 5.15649 577.5 5.15647ZM649.688-5.156 690.938-5.15598 690.938 5.15652 649.688 5.1565ZM721.875-5.15597 763.125-5.15596 763.125 5.15654 721.875 5.15653ZM794.062-5.15594 835.312-5.15593 835.312 5.15657 794.062 5.15656ZM866.25-5.15592 907.5-5.1559 907.5 5.1566 866.25 5.15658ZM904.496-15.4684 935.433 0.000360892 904.496 15.4691Z" fill="#215F9A" transform="matrix(-1 0 0 1 2667.43 1863)"/><text fill="#215F9A" font-family="Roboto,Roboto_MSFontService,sans-serif" font-weight="400" font-size="55" transform="matrix(1 0 0 1 1765.28 1705)">/auth/refresh/</text><text fill="#215F9A" font-family="Roboto,Roboto_MSFontService,sans-serif" font-weight="400" font-size="55" transform="matrix(1 0 0 1 1869.37 1832)">access token + refresh token 3</text><text fill="#215F9A" font-family="Verdana,Verdana_MSFontService,sans-serif" font-weight="700" font-size="55" transform="matrix(1 0 0 1 2164.54 1576)">...</text><text fill="#215F9A" font-family="Verdana,Verdana_MSFontService,sans-serif" font-weight="700" font-size="55" transform="matrix(1 0 0 1 2163.52 1949)">...</text><path d="M1671 612.499C1671 607.805 1674.81 604 1679.5 604L1713.5 604C1718.19 604 1722 607.805 1722 612.499L1722 1972.5C1722 1977.19 1718.19 1981 1713.5 1981L1679.5 1981C1674.81 1981 1671 1977.19 1671 1972.5Z" fill="#215F9A" fill-rule="evenodd"/><path d="M2668 612.666C2668 607.88 2671.88 604 2676.67 604L2711.33 604C2716.12 604 2720 607.88 2720 612.666L2720 1972.33C2720 1977.12 2716.12 1981 2711.33 1981L2676.67 1981C2671.88 1981 2668 1977.12 2668 1972.33Z" fill="#215F9A" fill-rule="evenodd"/><g clip-path="url(#clip0)"><g clip-path="url(#clip1)"><g><path d="M134.062 199.604 151.938 199.604 151.938 223.438 134.062 223.438Z" fill="#215F9A" transform="matrix(1 0 0 1.00036 2551 351)"/><path d="M134.062 235.354 151.938 235.354 151.938 253.229 134.062 253.229Z" fill="#215F9A" transform="matrix(1 0 0 1.00036 2551 351)"/><path d="M163.854 235.354 250.25 235.354 250.25 253.229 163.854 253.229Z" fill="#215F9A" transform="matrix(1 0 0 1.00036 2551 351)"/><path d="M35.75 235.354 122.146 235.354 122.146 253.229 35.75 253.229Z" fill="#215F9A" transform="matrix(1 0 0 1.00036 2551 351)"/><path d="M227.668 151.938 58.3321 151.938C52.4417 151.938 47.6667 156.713 47.6667 162.603L47.6667 188.939C47.6667 194.829 52.4417 199.604 58.3321 199.604L227.668 199.604C233.558 199.604 238.333 194.829 238.333 188.939L238.333 162.603C238.333 156.713 233.558 151.938 227.668 151.938ZM77.4583 181.729C74.1675 181.729 71.5 179.062 71.5 175.771 71.5 172.48 74.1675 169.812 77.4583 169.812 80.7491 169.812 83.4167 172.48 83.4167 175.771 83.4167 179.062 80.7491 181.729 77.4583 181.729ZM107.25 181.729C103.959 181.729 101.292 179.062 101.292 175.771 101.292 172.48 103.959 169.812 107.25 169.812 110.541 169.812 113.208 172.48 113.208 175.771 113.208 179.062 110.541 181.729 107.25 181.729ZM137.042 181.729C133.751 181.729 131.083 179.062 131.083 175.771 131.083 172.48 133.751 169.812 137.042 169.812 140.332 169.812 143 172.48 143 175.771 143 179.062 140.332 181.729 137.042 181.729Z" fill="#215F9A" transform="matrix(1 0 0 1.00036 2551 351)"/><path d="M227.668 92.3542 58.3321 92.3542C52.4417 92.3542 47.6667 97.1292 47.6667 103.02L47.6667 129.355C47.6667 135.246 52.4417 140.021 58.3321 140.021L227.668 140.021C233.558 140.021 238.333 135.246 238.333 129.355L238.333 103.02C238.333 97.1292 233.558 92.3542 227.668 92.3542ZM77.4583 122.146C74.1675 122.146 71.5 119.478 71.5 116.188 71.5 112.897 74.1675 110.229 77.4583 110.229 80.7491 110.229 83.4167 112.897 83.4167 116.188 83.4167 119.478 80.7491 122.146 77.4583 122.146ZM107.25 122.146C103.959 122.146 101.292 119.478 101.292 116.188 101.292 112.897 103.959 110.229 107.25 110.229 110.541 110.229 113.208 112.897 113.208 116.188 113.208 119.478 110.541 122.146 107.25 122.146ZM137.042 122.146C133.751 122.146 131.083 119.478 131.083 116.188 131.083 112.897 133.751 110.229 137.042 110.229 140.332 110.229 143 112.897 143 116.188 143 119.478 140.332 122.146 137.042 122.146Z" fill="#215F9A" transform="matrix(1 0 0 1.00036 2551 351)"/><path d="M227.668 32.7708 58.3321 32.7708C52.4417 32.7708 47.6667 37.5458 47.6667 43.4363L47.6667 69.7721C47.6667 75.6625 52.4417 80.4375 58.3321 80.4375L227.668 80.4375C233.558 80.4375 238.333 75.6625 238.333 69.7721L238.333 43.4363C238.333 37.5458 233.558 32.7708 227.668 32.7708ZM77.4583 62.5625C74.1675 62.5625 71.5 59.895 71.5 56.6042 71.5 53.3134 74.1675 50.6458 77.4583 50.6458 80.7491 50.6458 83.4167 53.3134 83.4167 56.6042 83.4167 59.895 80.7491 62.5625 77.4583 62.5625ZM107.25 62.5625C103.959 62.5625 101.292 59.895 101.292 56.6042 101.292 53.3134 103.959 50.6458 107.25 50.6458 110.541 50.6458 113.208 53.3134 113.208 56.6042 113.208 59.895 110.541 62.5625 107.25 62.5625ZM137.042 62.5625C133.751 62.5625 131.083 59.895 131.083 56.6042 131.083 53.3134 133.751 50.6458 137.042 50.6458 140.332 50.6458 143 53.3134 143 56.6042 143 59.895 140.332 62.5625 137.042 62.5625Z" fill="#215F9A" transform="matrix(1 0 0 1.00036 2551 351)"/></g></g></g></g></svg>